<svg width="208" height="20" viewBox="0 0 208 20" fill="none" xmlns="http://www.w3.org/2000/svg">
<path d="M10.176 19.168L0.12 13.336V10.48L10.176 4.672V8.272L3.936 11.896L10.176 15.52V19.168ZM112.725 19C112.117 19 111.557 18.848 111.045 18.544C110.549 18.24 110.149 17.84 109.845 17.344C109.541 16.832 109.389 16.272 109.389 15.664V14.344H112.557V15.52C112.557 15.6 112.581 15.672 112.629 15.736C112.693 15.784 112.765 15.808 112.845 15.808H123.189C123.269 15.808 123.333 15.784 123.381 15.736C123.445 15.672 123.477 15.6 123.477 15.52V12.232C123.477 12.152 123.445 12.088 123.381 12.04C123.333 11.992 123.269 11.968 123.189 11.968H112.725C112.117 11.968 111.557 11.816 111.045 11.512C110.549 11.208 110.149 10.808 109.845 10.312C109.541 9.8 109.389 9.232 109.389 8.608V5.056C109.389 4.448 109.541 3.896 109.845 3.4C110.149 2.888 110.549 2.48 111.045 2.176C111.557 1.872 112.117 1.72 112.725 1.72H123.333C123.941 1.72 124.493 1.872 124.989 2.176C125.501 2.48 125.909 2.888 126.213 3.4C126.517 3.896 126.669 4.448 126.669 5.056V6.376H123.477V5.2C123.477 5.12 123.445 5.056 123.381 5.008C123.333 4.944 123.269 4.912 123.189 4.912H112.845C112.765 4.912 112.693 4.944 112.629 5.008C112.581 5.056 112.557 5.12 112.557 5.2V8.488C112.557 8.568 112.581 8.632 112.629 8.68C112.693 8.728 112.765 8.752 112.845 8.752H123.333C123.941 8.752 124.493 8.904 124.989 9.208C125.501 9.512 125.909 9.92 126.213 10.432C126.517 10.928 126.669 11.488 126.669 12.112V15.664C126.669 16.272 126.517 16.832 126.213 17.344C125.909 17.84 125.501 18.24 124.989 18.544C124.493 18.848 123.941 19 123.333 19H112.725ZM129.193 19V5.08H132.337V19H129.193ZM129.193 3.688V0.519999H132.337V3.688H129.193ZM138.318 19C137.71 19 137.158 18.848 136.662 18.544C136.166 18.24 135.766 17.84 135.462 17.344C135.158 16.848 135.006 16.296 135.006 15.688V0.495999H138.174V15.568C138.174 15.648 138.198 15.72 138.246 15.784C138.31 15.832 138.382 15.856 138.462 15.856H141.126V19H138.318ZM149.324 19L141.668 5.08H145.292L150.788 15.184L156.26 5.08H159.884L152.204 19H149.324ZM164.146 19C163.538 19 162.978 18.848 162.466 18.544C161.97 18.24 161.57 17.84 161.266 17.344C160.978 16.848 160.834 16.296 160.834 15.688V10.456H171.826V8.512C171.826 8.432 171.794 8.368 171.73 8.32C171.682 8.256 171.618 8.224 171.538 8.224H160.834V5.08H171.658C172.266 5.08 172.818 5.232 173.314 5.536C173.826 5.84 174.226 6.24 174.514 6.736C174.818 7.232 174.97 7.784 174.97 8.392V19H164.146ZM164.266 15.856H171.826V13.288H163.978V15.568C163.978 15.648 164.002 15.72 164.05 15.784C164.114 15.832 164.186 15.856 164.266 15.856ZM183.73 19V15.64L195.082 1.768L196.042 1.72V5.032L184.69 18.928L183.73 19ZM197.518 19.216V15.568L203.758 11.944L197.518 8.344V4.72L207.598 10.528V13.384L197.518 19.216Z" fill="white"/>
<path d="M20.0957 19V1.72H33.3437C33.9517 1.72 34.5037 1.872 34.9997 2.176C35.5117 2.48 35.9197 2.888 36.2237 3.4C36.5277 3.896 36.6797 4.448 36.6797 5.056V8.44C36.6797 8.648 36.6637 8.848 36.6317 9.04C36.5997 9.232 36.5437 9.416 36.4637 9.592C36.7357 9.96 36.9517 10.344 37.1117 10.744C37.2877 11.144 37.3757 11.544 37.3757 11.944V15.664C37.3757 16.272 37.2237 16.832 36.9197 17.344C36.6157 17.84 36.2077 18.24 35.6957 18.544C35.1837 18.848 34.6237 19 34.0157 19H20.0957ZM23.5517 15.808H33.8717C33.9517 15.808 34.0237 15.784 34.0877 15.736C34.1517 15.672 34.1837 15.6 34.1837 15.52V12.088C34.1837 12.008 34.1517 11.944 34.0877 11.896C34.0237 11.832 33.9517 11.8 33.8717 11.8H23.5517C23.4717 11.8 23.3997 11.832 23.3357 11.896C23.2877 11.944 23.2637 12.008 23.2637 12.088V15.52C23.2637 15.6 23.2877 15.672 23.3357 15.736C23.3997 15.784 23.4717 15.808 23.5517 15.808ZM23.5517 8.608H33.1997C33.2797 8.608 33.3437 8.584 33.3917 8.536C33.4397 8.472 33.4637 8.4 33.4637 8.32V5.2C33.4637 5.12 33.4397 5.056 33.3917 5.008C33.3437 4.944 33.2797 4.912 33.1997 4.912H23.5517C23.4717 4.912 23.3997 4.944 23.3357 5.008C23.2877 5.056 23.2637 5.12 23.2637 5.2V8.32C23.2637 8.4 23.2877 8.472 23.3357 8.536C23.3997 8.584 23.4717 8.608 23.5517 8.608ZM39.8964 19V8.392C39.8964 7.784 40.0484 7.232 40.3524 6.736C40.6564 6.24 41.0564 5.84 41.5524 5.536C42.0644 5.232 42.6164 5.08 43.2084 5.08H50.9364V8.224H43.3284C43.2484 8.224 43.1764 8.256 43.1124 8.32C43.0644 8.368 43.0404 8.432 43.0404 8.512V19H39.8964ZM55.8876 19C55.2796 19 54.7276 18.848 54.2316 18.544C53.7356 18.24 53.3356 17.84 53.0316 17.344C52.7276 16.848 52.5756 16.296 52.5756 15.688V8.392C52.5756 7.784 52.7276 7.232 53.0316 6.736C53.3356 6.24 53.7356 5.84 54.2316 5.536C54.7276 5.232 55.2796 5.08 55.8876 5.08H63.3996C64.0076 5.08 64.5596 5.232 65.0556 5.536C65.5676 5.84 65.9676 6.24 66.2556 6.736C66.5596 7.232 66.7116 7.784 66.7116 8.392V13.624H55.7196V15.568C55.7196 15.648 55.7436 15.72 55.7916 15.784C55.8556 15.832 55.9276 15.856 56.0076 15.856H66.7116V19H55.8876ZM55.7196 10.792H63.5676V8.512C63.5676 8.432 63.5356 8.368 63.4716 8.32C63.4236 8.256 63.3596 8.224 63.2796 8.224H56.0076C55.9276 8.224 55.8556 8.256 55.7916 8.32C55.7436 8.368 55.7196 8.432 55.7196 8.512V10.792ZM69.2648 19V5.08H80.0887C80.6968 5.08 81.2488 5.232 81.7448 5.536C82.2568 5.84 82.6568 6.24 82.9448 6.736C83.2488 7.232 83.4008 7.784 83.4008 8.392V19H80.2568V8.512C80.2568 8.432 80.2248 8.368 80.1608 8.32C80.1128 8.256 80.0487 8.224 79.9688 8.224H72.6968C72.6168 8.224 72.5448 8.256 72.4808 8.32C72.4328 8.368 72.4088 8.432 72.4088 8.512V19H69.2648ZM88.7001 19C88.0921 19 87.5401 18.848 87.0441 18.544C86.5481 18.24 86.1481 17.84 85.8441 17.344C85.5401 16.848 85.3881 16.296 85.3881 15.688V8.392C85.3881 7.784 85.5401 7.232 85.8441 6.736C86.1481 6.24 86.5481 5.84 87.0441 5.536C87.5401 5.232 88.0921 5.08 88.7001 5.08H96.2121C96.8201 5.08 97.3721 5.232 97.8681 5.536C98.3801 5.84 98.7801 6.24 99.0681 6.736C99.3721 7.232 99.5241 7.784 99.5241 8.392V15.688C99.5241 16.296 99.3721 16.848 99.0681 17.344C98.7801 17.84 98.3881 18.24 97.8921 18.544C97.3961 18.848 96.8361 19 96.2121 19H88.7001ZM88.8201 15.856H96.0921C96.1721 15.856 96.2361 15.832 96.2841 15.784C96.3481 15.72 96.3801 15.648 96.3801 15.568V8.512C96.3801 8.432 96.3481 8.368 96.2841 8.32C96.2361 8.256 96.1721 8.224 96.0921 8.224H88.8201C88.7401 8.224 88.6681 8.256 88.6041 8.32C88.5561 8.368 88.5321 8.432 88.5321 8.512V15.568C88.5321 15.648 88.5561 15.72 88.6041 15.784C88.6681 15.832 88.7401 15.856 88.8201 15.856Z" fill="url(#paint0_linear_347_2)"/>
<defs>
<linearGradient id="paint0_linear_347_2" x1="104" y1="-5" x2="103.259" y2="22.5053" gradientUnits="userSpaceOnUse">
<stop offset="0.541667" stop-color="#536CFF"/>
<stop offset="1" stop-color="white"/>
</linearGradient>
</defs>
</svg>
